# xmcd
#
# Track frame offsets:
#	151
#	25649
#	50327
#	69517
#	85857
#	107347
#	129138
#	144222
#	168686
#	186186
#	199263
#
# Disc length: 2816
#
# Revision: 1
# Processed by: cddbd v1.5.1PL0 Copyright (c) Steve Scherf et al.
# Submitted via: CDex 1.51
# Normalized: r0:TDELIM( - )
#
DISCID=890afe0b
DTITLE=Origen - A. Zakharenko - Ave Maria
DYEAR=2002
DGENRE=New Age
TTITLE0=Ave Maria - J. Caccini
TTITLE1=Moonlight Sonata - L. Beethoven
TTITLE2=Ave Maria - F. Shubert
TTITLE3=Prelude Op. 18 - C. Franck
TTITLE4=Canon in D - J. Pachelbel
TTITLE5=Ave Maria - A. Zakharenko
TTITLE6=Lament - A. Zakharenko
TTITLE7=Tears of the Past - A. Zakharenko
TTITLE8=Ave Maria - J. S. Bach - C. Gunod
TTITLE9=Largo in Fmin - J. S. Bach
TTITLE10=Finale - A. Zakharenko
EXTD=YEAR: 2002
EXTT0=
EXTT1=
EXTT2=
EXTT3=
EXTT4=
EXTT5=
EXTT6=
EXTT7=
EXTT8=
EXTT9=
EXTT10=
PLAYORDER=
